# xmcd
#
# Track frame offsets: 
#        150
#        10411
#        21179
#        31524
#        43159
#        53239
#        63856
#        74299
#        87926
#        102144
#        111504
#        122893
#        131204
#        143378
#        156104
#        172931
#        188174
#        203644
#        216884
#        236274
#        254600
#        269108
#        286220
#
# Disc length: 4002 seconds
#
# Revision: 0
# Processed by: cddbd v1.5.2PL0 Copyright (c) Steve Scherf et al.
# Submitted via: ExactAudioCopy v1.1
#
DISCID=4b0fa017
DTITLE=Various Artist - All-Time Country Favourites Through the Years
DTITLE=Disc 1
DYEAR=2012
DGENRE=Country
TTITLE0=Johnny Cash - Get rhythm
TTITLE1=Patsy Cline - Stop, look and listen
TTITLE2=Eddy Arnold - Anytime
TTITLE3=Hank Williams - My bucket's got a hole in it
TTITLE4=Jim Reeves - Blue boy
TTITLE5=Hank Snow - Lady's man
TTITLE6=Lefty Frizzell - Give me more, more, more of your kisses
TTITLE7=Webb Pierce - Wondering
TTITLE8=Ernest Tubb - Rainbow at midnight
TTITLE9=Loretta Lynn - Your squaw is on the warpath
TTITLE10=Ray Price - Burning memories
TTITLE11=Roger Miller - Dang me
TTITLE12=Marty Robbins - I'll go on alone
TTITLE13=Charley Pride - Mountain of love
TTITLE14=Conway Twitty - Don't take it away
TTITLE15=Dolly Parton - Tennessee homesick blues
TTITLE16=Waylon Jennings - Lucille ( you won't do your daddy's will )
TTITLE17=Tammy Wynette - Kids say they darndest things
TTITLE18=Mac Davis - It's hard to be humble
TTITLE19=John Denver - Some days are diamonds ( some days are stone )
TTITLE20=Don Williams - Listen to the radio
TTITLE21=Mavericks - I've got this feeling
TTITLE22=Willie Nelson - My heroes have always been cowboys
EXTD=
EXTT0=
EXTT1=
EXTT2=
EXTT3=
EXTT4=
EXTT5=
EXTT6=
EXTT7=
EXTT8=
EXTT9=
EXTT10=
EXTT11=
EXTT12=
EXTT13=
EXTT14=
EXTT15=
EXTT16=
EXTT17=
EXTT18=
EXTT19=
EXTT20=
EXTT21=
EXTT22=
PLAYORDER=
